# xmcd
#
# Track frame offsets:
#	150
#	9820
#	21007
#	32032
#	44182
#	54265
#	63570
#	74470
#	85982
#	99357
#
# Disc length: 1477 seconds
#
# Revision: 0
# Processed by: cddbd v1.4PL0 Copyright (c) Steve Scherf et al.
# Submitted via: EasyCDDAExtractor 4.5.0.2
#
DISCID=7c05c30a
DTITLE=Various Artist - Classic Country Instrumentals
DYEAR=1900
DGENRE=Country
TTITLE0=Foggy Mountain Breakdown (Lester Flatt and Earl Scruggs)
TTITLE1=Last Date (Floyd Cramer)
TTITLE2=Raunchy (Bill Justis)
TTITLE3=Blue Eyes Crying In The Rain (Ace Cannon)
TTITLE4=Groovy Grubworm (Harlow Wilcox and The Oakies)
TTITLE5=Yakety Axe (Chet Atkins)
TTITLE6=Rebel-Rouser (Duane Eddy)
TTITLE7=Today I Started Loving You Again (Charlie McCoy)
TTITLE8=Wildwood Flower (Hank Thompson w/Merle Travis)
TTITLE9=Down Yonder (Del Wood)
EXTD=
EXTT0=
EXTT1=
EXTT2=
EXTT3=
EXTT4=
EXTT5=
EXTT6=
EXTT7=
EXTT8=
EXTT9=
PLAYORDER=
